<svg xmlns="http://www.w3.org/2000/svg" width="68" height="48" viewBox="0 0 34 24">
  <defs>
    <style>
      .cls-1 {
        fill: #464c51;
        fill-rule: evenodd;
      }
    </style>
  </defs>
  <path id="icon_pasete__" data-name="icon_pasete_%" class="cls-1" d="M1037.99,809h-3v-1.5a1.5,1.5,0,0,0-1.5-1.5h-3a1.5,1.5,0,0,0-1.49,1.5V809h-3v3h11.99v-3Zm-4.5,0h-3v-1.5c0.01,0,.01,0,0.01,0h2.99V809h0Zm7.5,4.5v-3.75a0.754,0.754,0,0,0-.75-0.75h-1.5v1.5h0.75v3h-4.5l-4.5,4.5v6h-5.99V810.5h0.75V809h-1.5a0.754,0.754,0,0,0-.75.75v15a0.754,0.754,0,0,0,.75.75h6.74V830h14.99V813.5h-4.49Zm-6,2.121V818h-2.38Zm9,12.879h-12v-9h4.5V815h7.5v13.5Zm8.31-.935a2.419,2.419,0,0,0,.52.779,2.635,2.635,0,0,0,.78.528,2.354,2.354,0,0,0,.95.191,2.4,2.4,0,0,0,.96-0.191,2.534,2.534,0,0,0,1.3-1.307,2.505,2.505,0,0,0,0-1.914,2.436,2.436,0,0,0-.53-0.779,2.469,2.469,0,0,0-.77-0.528,2.385,2.385,0,0,0-.96-0.191,2.337,2.337,0,0,0-.95.191,2.635,2.635,0,0,0-.78.528,2.408,2.408,0,0,0-.52.779A2.505,2.505,0,0,0,1052.3,827.565Zm3.1-.112a1.212,1.212,0,0,1-1.69,0,1.2,1.2,0,0,1,1.69-1.69A1.22,1.22,0,0,1,1055.4,827.453Zm-9.35-4.64a2.593,2.593,0,0,0,.52.779,2.635,2.635,0,0,0,.78.528,2.354,2.354,0,0,0,.95.191,2.4,2.4,0,0,0,.96-0.191,2.534,2.534,0,0,0,1.3-1.307,2.505,2.505,0,0,0,0-1.914,2.436,2.436,0,0,0-.53-0.779,2.469,2.469,0,0,0-.77-0.528,2.385,2.385,0,0,0-.96-0.191,2.337,2.337,0,0,0-.95.191,2.635,2.635,0,0,0-.78.528,2.58,2.58,0,0,0-.52.779A2.505,2.505,0,0,0,1046.05,822.813Zm3.1-.112a1.212,1.212,0,0,1-1.69,0,1.2,1.2,0,0,1,1.69-1.69A1.22,1.22,0,0,1,1049.15,822.7Zm-0.99,6.124,1.09,0.5,5.48-9.689-1.1-.5Z" transform="translate(-1023 -806)"/>
</svg>
