<svg xmlns="http://www.w3.org/2000/svg" width="52" height="32" viewBox="0 0 26 16">
  <defs>
    <style>
      .cls-1 {
        fill: #464c51;
        fill-rule: evenodd;
      }
    </style>
  </defs>
  <path id="icon_show" class="cls-1" d="M1283.97,1078a14.816,14.816,0,0,1,12.88,7.57,0.84,0.84,0,0,1,0,.89,14.748,14.748,0,0,1-25.75-.03,0.84,0.84,0,0,1,0-.89A14.817,14.817,0,0,1,1283.97,1078Zm0,1.78a12.9,12.9,0,0,0-10.99,6.22,12.828,12.828,0,0,0,21.99,0A12.918,12.918,0,0,0,1283.97,1079.78Zm3.71,6.22a3.713,3.713,0,1,1-3.71-3.56,3.641,3.641,0,0,1,3.71,3.56" transform="translate(-1271 -1078)"/>
</svg>
