<svg xmlns="http://www.w3.org/2000/svg" width="78" height="48" viewBox="0 0 39 24">
  <defs>
    <style>
      .cls-1 {
        fill: #464c51;
        fill-rule: evenodd;
      }
    </style>
  </defs>
  <path id="icon_paste_fx" class="cls-1" d="M936.979,809h-3v-1.5a1.5,1.5,0,0,0-1.5-1.5h-3a1.5,1.5,0,0,0-1.5,1.5V809h-3v3h11.983v-3Zm-4.494,0h-3v-1.5a0,0,0,0,1,0,0h2.99a0.008,0.008,0,0,1,0,0V809h0Zm7.49,4.5v-3.75a0.752,0.752,0,0,0-.749-0.75h-1.5v1.5h0.749v3h-4.494L929.49,818v6H923.5V810.5h0.749V809h-1.5a0.752,0.752,0,0,0-.749.75v15a0.751,0.751,0,0,0,.749.75h6.741V830h14.979V813.5h-4.494Zm-5.992,2.121V818h-2.375Zm8.988,12.879H930.988v-9h4.493V815h7.49v13.5Zm2.515,1.485h1.657V826.1h4.1v-1.5h-4.1v-2.455H951.5v-1.5h-6.009v9.346Zm6.508,0h2l2.446-3.947,2.458,3.947H961l-3.379-4.884,3.05-4.462h-2.012L956.49,824.1l-2.2-3.458H952.2l3.1,4.462Z" transform="translate(-922 -806)"/>
</svg>
