<svg xmlns="http://www.w3.org/2000/svg" width="52" height="56" viewBox="0 0 26 28">
  <defs>
    <style>
      .cls-1 {
        fill: #464c51;
        fill-rule: evenodd;
      }
    </style>
  </defs>
  <path id="icon_paste" class="cls-1" d="M876.333,763.5h-3.466v-1.75a1.747,1.747,0,0,0-1.734-1.75h-3.466a1.747,1.747,0,0,0-1.734,1.75v1.75h-3.466V767h13.866v-3.5Zm-5.2,0h-3.466v-1.746l0,0h3.461l0,0V763.5h0Zm8.667,5.25v-4.375a0.874,0.874,0,0,0-.867-0.875H877.2v1.75h0.867v3.5h-5.2l-5.2,5.25v7h-6.934V765.25H861.6V763.5h-1.733a0.874,0.874,0,0,0-.867.875v17.5a0.874,0.874,0,0,0,.867.875h7.8V788H885V768.75h-5.2Zm-6.933,2.475V774h-2.749Zm10.4,15.025H869.4v-10.5h5.2V770.5h8.667v15.75Z" transform="translate(-859 -760)"/>
</svg>
