<?xml version="1.0" standalone="no"?><!DOCTYPE svg PUBLIC "-//W3C//DTD SVG 1.1//EN" "http://www.w3.org/Graphics/SVG/1.1/DTD/svg11.dtd"><svg t="1576660491016" class="icon" viewBox="0 0 1024 1024" version="1.1" xmlns="http://www.w3.org/2000/svg" p-id="22145" xmlns:xlink="http://www.w3.org/1999/xlink" width="128" height="128"><defs><style type="text/css"></style></defs><path d="M870.5 1024h-717c-38.6 0-70-31.4-70-70V198h60v756c0 5.4 4.6 10 10 10h717c5.4 0 10-4.6 10-10V198h60v756c0 38.6-31.4 70-70 70zM831.5 193.5h-60v-103c0-16.5-13.5-30-30-30h-459c-16.5 0-30 13.5-30 30v103h-60v-103c0-49.6 40.4-90 90-90h459c49.6 0 90 40.4 90 90v103z" p-id="22146"></path><path d="M992 214H32c-16.6 0-30-13.4-30-30s13.4-30 30-30h960c16.6 0 30 13.4 30 30s-13.4 30-30 30zM298 786c-16.6 0-30-13.4-30-30V356c0-16.6 13.4-30 30-30s30 13.4 30 30v400c0 16.6-13.4 30-30 30zM512 786c-16.6 0-30-13.4-30-30V356c0-16.6 13.4-30 30-30s30 13.4 30 30v400c0 16.6-13.4 30-30 30zM726 786c-16.6 0-30-13.4-30-30V356c0-16.6 13.4-30 30-30s30 13.4 30 30v400c0 16.6-13.4 30-30 30z" p-id="22147"></path></svg>