<?xml version="1.0" standalone="no"?><!DOCTYPE svg PUBLIC "-//W3C//DTD SVG 1.1//EN" "http://www.w3.org/Graphics/SVG/1.1/DTD/svg11.dtd"><svg t="1576660297627" class="icon" viewBox="0 0 1024 1024" version="1.1" xmlns="http://www.w3.org/2000/svg" p-id="20801" xmlns:xlink="http://www.w3.org/1999/xlink" width="128" height="128"><defs><style type="text/css"></style></defs><path d="M928 409.6c0-19.2 12.8-32 32-32s32 12.8 32 32v441.6C992 928 928 992 851.2 992h-672c-76.8 0-140.8-64-140.8-140.8v-672c0-76.8 64-140.8 140.8-140.8h441.6c19.2 0 32 12.8 32 32s-12.8 32-32 32H179.2c-44.8 0-76.8 38.4-76.8 76.8v672c0 44.8 38.4 76.8 76.8 76.8h672c44.8 0 76.8-38.4 76.8-76.8V409.6z" p-id="20802"></path><path d="M934.4 38.4c12.8-12.8 32-12.8 44.8 0 12.8 12.8 12.8 32 0 44.8l-512 512c-12.8 12.8-32 12.8-44.8 0-12.8-12.8-12.8-32 0-44.8l512-512z" p-id="20803"></path></svg>