<svg xmlns="http://www.w3.org/2000/svg" width="50.06" height="50" viewBox="0 0 25.03 25">
  <defs>
    <style>
      .cls-1 {
        fill: #464c51;
        fill-rule: evenodd;
      }
    </style>
  </defs>
  <path id="iconhide" class="cls-1" d="M1294.38,1034.13a13.563,13.563,0,0,0,2.55-4.22,1.279,1.279,0,0,0,0-.82,13.174,13.174,0,0,0-12.43-8.6,14.42,14.42,0,0,0-3.05.32l2.22,2.29c0.27-.02.54-0.04,0.83-0.04a10.456,10.456,0,0,1,9.91,6.44,11.081,11.081,0,0,1-1.78,2.83l1.75,1.8h0Zm-9.88,4.38a13.26,13.26,0,0,0,5.77-1.25l4.6,4.74,1.76-1.82-22.5-23.18-1.76,1.82,4.14,4.27a14.2,14.2,0,0,0-4.45,6,1.431,1.431,0,0,0,0,.82C1272.09,1029.99,1274.96,1038.51,1284.5,1038.51Zm-6.21-13.59,2.84,2.93a3.971,3.971,0,0,0,.72,4.38,3.691,3.691,0,0,0,4.25.74l2.25,2.32a11.245,11.245,0,0,1-3.85.65,10.456,10.456,0,0,1-9.91-6.44A10.924,10.924,0,0,1,1278.29,1024.92Z" transform="translate(-1272 -1017)"/>
</svg>
