<svg xmlns="http://www.w3.org/2000/svg" width="46" height="46" viewBox="0 0 23 23">
  <defs>
    <style>
      .cls-1 {
        fill: #464c51;
        fill-rule: evenodd;
      }
    </style>
  </defs>
  <path id="icon_filter" class="cls-1" d="M874.416,902a1.36,1.36,0,0,1-.575-0.192l-3.832-2.875a0.87,0.87,0,0,1-.384-0.766v-9.2l-8.335-8.338a0.875,0.875,0,0,1-.192-1.054,0.839,0.839,0,0,1,.863-0.575h21.078a0.838,0.838,0,0,1,.862.575,0.875,0.875,0,0,1-.191,1.054l-8.336,8.338v12.075a0.919,0.919,0,0,1-.575.862A0.461,0.461,0,0,1,874.416,902Zm-2.874-4.312,1.916,1.437V888.583a0.87,0.87,0,0,1,.287-0.67l7-7H864.26l6.994,7a0.867,0.867,0,0,1,.288.67v9.105Z" transform="translate(-861 -879)"/>
</svg>
