<svg xmlns="http://www.w3.org/2000/svg" width="36" height="46" viewBox="0 0 18 23">
  <defs>
    <style>
      .cls-1 {
        fill: #464c51;
        fill-rule: evenodd;
      }
    </style>
  </defs>
  <path id="icon_data_design" data-name="icon_data design" class="cls-1" d="M866.5,1092.67a1.155,1.155,0,1,0,1.125,1.15,1.141,1.141,0,0,0-1.125-1.15h0ZM871,1076c-4.5,0-9,1.58-9,4.6v13.8c0,3.02,4.5,4.6,9,4.6s9-1.58,9-4.6v-13.8C880,1077.58,875.5,1076,871,1076Zm6.75,18.4c0,0.82-2.565,2.3-6.75,2.3s-6.75-1.48-6.75-2.3v-3.76a16.334,16.334,0,0,0,13.5,0v3.76Zm0-6.9c0,0.82-2.565,2.3-6.75,2.3s-6.75-1.48-6.75-2.3v-3.76a16.334,16.334,0,0,0,13.5,0v3.76Zm-6.75-4.6c-4.185,0-6.75-1.48-6.75-2.3s2.565-2.3,6.75-2.3,6.75,1.48,6.75,2.3S875.185,1082.9,871,1082.9Zm-4.5,2.87a1.15,1.15,0,1,0,1.125,1.15h0A1.141,1.141,0,0,0,866.5,1085.77Z" transform="translate(-862 -1076)"/>
</svg>
